<?xml version="1.0" standalone="no"?>
<!DOCTYPE svg PUBLIC "-//W3C//DTD SVG 20010904//EN"
 "http://www.w3.org/TR/2001/REC-SVG-20010904/DTD/svg10.dtd">
<svg version="1.0" xmlns="http://www.w3.org/2000/svg"
 width="80.000000pt" height="80.000000pt" viewBox="0 0 80.000000 80.000000"
 preserveAspectRatio="xMidYMid meet">

<g transform="translate(0.000000,80.000000) scale(0.100000,-0.100000)"
fill="#000000" stroke="none">
<path d="M483 771 c-98 -33 -164 -94 -357 -326 -132 -160 -122 -142 -100 -166
11 -12 42 -31 69 -44 61 -27 107 -75 133 -135 11 -25 29 -53 41 -64 24 -22 6
-33 171 104 255 212 324 299 337 426 l6 56 -84 84 c-77 78 -86 84 -124 84 -22
-1 -63 -9 -92 -19z m191 -90 l69 -69 -6 -55 c-8 -77 -39 -132 -123 -213 -86
-85 -310 -274 -324 -274 -5 0 -18 21 -30 48 -27 62 -91 126 -152 152 -26 11
-48 25 -48 30 0 11 128 166 237 286 107 119 179 163 268 164 37 0 47 -6 109
-69z"/>
<path d="M542 638 c-12 -6 -25 -22 -28 -35 -20 -77 86 -116 116 -44 13 33 2
64 -30 81 -23 12 -28 12 -58 -2z m53 -53 c0 -13 -8 -21 -22 -23 -17 -3 -23 2
-23 16 0 10 3 22 7 26 13 13 38 1 38 -19z"/>
</g>
</svg>
