<?xml version="1.0" standalone="no"?>
<!DOCTYPE svg PUBLIC "-//W3C//DTD SVG 20010904//EN"
 "http://www.w3.org/TR/2001/REC-SVG-20010904/DTD/svg10.dtd">
<svg version="1.0" xmlns="http://www.w3.org/2000/svg"
 width="80.000000pt" height="80.000000pt" viewBox="0 0 80.000000 80.000000"
 preserveAspectRatio="xMidYMid meet">

<g transform="translate(0.000000,80.000000) scale(0.100000,-0.100000)"
fill="#000000" stroke="none">
<path d="M454 751 c-62 -38 -81 -92 -44 -126 19 -17 21 -17 72 23 29 22 65 46
81 53 32 14 34 29 9 52 -25 23 -80 21 -118 -2z"/>
<path d="M590 765 c0 -3 8 -17 17 -31 25 -39 29 -165 8 -244 -10 -36 -18 -78
-19 -95 -1 -26 3 -30 27 -33 63 -7 117 89 117 210 0 76 -1 79 -37 119 -32 36
-113 89 -113 74z"/>
<path d="M295 496 c-29 -69 -51 -82 -112 -70 -26 5 -31 0 -65 -62 -21 -36 -38
-74 -38 -84 0 -16 85 -79 108 -80 4 0 22 -13 41 -29 l35 -29 -53 -11 c-71 -15
-91 -27 -91 -55 0 -31 15 -41 78 -55 115 -24 267 -9 326 32 l29 20 -23 19
c-28 23 -112 48 -161 48 -31 0 -38 4 -49 30 -7 16 -36 48 -66 70 -30 22 -54
45 -54 50 0 6 37 10 86 10 l87 0 32 -37 c18 -21 36 -35 40 -31 9 8 -25 60 -84
128 -41 46 -67 50 -37 5 l16 -25 -58 0 c-53 0 -60 2 -70 25 -16 34 -15 44 2
23 12 -17 15 -17 54 5 32 17 45 32 58 67 37 103 11 135 -31 36z"/>
<path d="M175 520 c-24 -27 -13 -68 22 -76 34 -9 57 6 61 40 6 53 -47 76 -83
36z"/>
</g>
</svg>
