<?xml version="1.0" standalone="no"?>
<!DOCTYPE svg PUBLIC "-//W3C//DTD SVG 20010904//EN"
 "http://www.w3.org/TR/2001/REC-SVG-20010904/DTD/svg10.dtd">
<svg version="1.0" xmlns="http://www.w3.org/2000/svg"
 width="80.000000pt" height="80.000000pt" viewBox="0 0 80.000000 80.000000"
 preserveAspectRatio="xMidYMid meet">

<g transform="translate(0.000000,80.000000) scale(0.100000,-0.100000)"
fill="#000000" stroke="none">
<path d="M285 780 c-4 -6 -5 -27 -3 -47 3 -33 0 -37 -29 -47 -34 -12 -62 -41
-63 -65 0 -8 -8 -23 -17 -34 -17 -18 -17 -20 11 -43 l28 -25 -7 -97 c-6 -86
-1 -153 22 -306 6 -45 -12 -66 -56 -66 -28 -1 -65 -23 -54 -33 10 -11 265 -8
304 3 74 21 74 62 0 75 l-38 6 -10 152 c-6 84 -9 153 -8 155 4 4 102 -71 171
-133 37 -32 75 -77 89 -104 34 -68 46 -76 85 -56 46 24 35 45 -43 86 -37 19
-112 72 -168 117 l-100 83 6 77 c4 42 8 83 11 90 7 22 -22 77 -51 96 -23 15
-26 22 -20 52 9 49 -1 74 -30 74 -13 0 -27 -5 -30 -10z m86 -327 c-8 -14 -10
-5 -11 38 0 31 3 59 8 63 11 12 14 -82 3 -101z m-47 -213 c8 -9 18 -45 22 -82
l7 -66 -42 -7 c-23 -4 -44 -5 -45 -3 -7 8 -12 158 -6 158 4 0 11 12 15 27 6
27 7 27 20 8 8 -11 21 -27 29 -35z"/>
</g>
</svg>
