<?xml version="1.0" standalone="no"?>
<!DOCTYPE svg PUBLIC "-//W3C//DTD SVG 20010904//EN"
 "http://www.w3.org/TR/2001/REC-SVG-20010904/DTD/svg10.dtd">
<svg version="1.0" xmlns="http://www.w3.org/2000/svg"
 width="80.000000pt" height="80.000000pt" viewBox="0 0 80.000000 80.000000"
 preserveAspectRatio="xMidYMid meet">

<g transform="translate(0.000000,80.000000) scale(0.100000,-0.100000)"
fill="#000000" stroke="none">
<path d="M613 750 c-53 -30 -174 -142 -209 -193 l-19 -28 -59 71 c-67 80 -161
155 -206 165 -43 9 -77 -15 -86 -61 -13 -73 43 -230 140 -388 42 -69 43 -73
39 -139 -4 -55 -2 -71 12 -87 20 -22 70 -26 108 -9 20 9 31 6 72 -20 75 -47
135 -37 147 24 3 17 11 20 56 19 35 -1 52 2 52 11 0 22 -49 65 -80 72 -38 7
-58 46 -38 73 7 10 34 46 60 81 132 181 192 365 138 419 -28 28 -66 25 -127
-10z m111 -16 c13 -33 5 -88 -21 -152 -54 -135 -130 -249 -244 -363 -78 -80
-140 -119 -184 -119 -113 0 37 333 239 533 100 99 194 144 210 101z m-584 -10
c49 -20 51 -34 5 -34 -28 0 -37 -5 -50 -30 -9 -17 -20 -28 -25 -25 -16 10 -11
72 6 89 19 19 15 19 64 0z m124 -101 c25 -27 53 -58 61 -70 l16 -23 -66 0 -65
0 -27 -55 c-15 -30 -30 -55 -33 -55 -4 0 -21 36 -39 79 l-33 79 26 40 c21 34
32 41 63 45 21 2 41 4 44 5 4 1 27 -19 53 -45z m84 -140 c-9 -10 -38 -59 -65
-110 l-49 -92 -33 49 -32 48 30 61 31 61 67 0 c62 0 65 -1 51 -17z m147 -309
c-10 -8 -23 -15 -29 -17 -16 -6 20 -77 39 -77 9 0 13 -5 10 -10 -13 -20 -58
-9 -114 29 -11 7 -1 21 45 64 44 41 60 51 63 39 2 -8 -5 -21 -14 -28z m85 -22
c0 -12 -74 -32 -84 -22 -6 6 0 13 15 19 29 12 69 14 69 3z"/>
</g>
</svg>
